<svg xmlns="http://www.w3.org/2000/svg" width="40" height="46">
    <path fill-rule="evenodd" fill="#FFF" d="m25.93 45.512-5.628-4.221-5.628 4.221-5.628-4.221-5.815 4.221H.604V6.116A5.628 5.628 0 0 1 6.232.488h28.14A5.628 5.628 0 0 1 40 6.116v39.396h-2.626l-5.816-4.221-5.628 4.221zM37.186 6.116a2.813 2.813 0 0 0-2.814-2.813H6.232a2.813 2.813 0 0 0-2.814 2.813V42.78l5.628-4.303 5.628 4.485 5.628-4.485 5.628 4.485 5.628-4.485 5.628 4.259V6.116zm-7.035 22.512H10.453a1.407 1.407 0 0 1 0-2.814h19.698a1.407 1.407 0 0 1 0 2.814zm0-8.474H10.453a1.407 1.407 0 0 1 0-2.814h19.698a1.407 1.407 0 0 1 0 2.814zm0-8.41H10.453a1.407 1.407 0 0 1 0-2.814h19.698a1.407 1.407 0 0 1 0 2.814z"/>
</svg>
