<svg xmlns="http://www.w3.org/2000/svg" width="42" height="43">
    <path fill-rule="evenodd" fill="#FFF" d="M36.72.849H5.28a5.24 5.24 0 0 0-5.24 5.24v31.44a5.24 5.24 0 0 0 5.24 5.24h31.44a5.24 5.24 0 0 0 5.24-5.24V6.089a5.24 5.24 0 0 0-5.24-5.24zm2.62 36.68a2.62 2.62 0 0 1-2.62 2.62H5.28a2.62 2.62 0 0 1-2.62-2.62V6.089a2.62 2.62 0 0 1 2.62-2.62h31.44a2.62 2.62 0 0 1 2.62 2.62v31.44zm-7.473-23.167L21.021 25.247 10.174 14.362a1.313 1.313 0 0 0-1.863 0 1.327 1.327 0 0 0 0 1.872l11.712 11.754c.274.275.638.393.998.375.359.018.723-.1.998-.375L33.73 16.234a1.327 1.327 0 0 0 0-1.872 1.313 1.313 0 0 0-1.863 0z"/>
</svg>
